<svg xmlns="http://www.w3.org/2000/svg" xmlns:xlink="http://www.w3.org/1999/xlink" xmlns:lucid="lucid" width="1848.54" height="751.47"><g transform="translate(-907.464442228654 -2771.0784859242335)" lucid:page-tab-id="0_0"><path d="M1133.35 3158.5c17.68 0 32 17.9 32 40s-14.32 40-32 40h-96c-17.67 0-32-17.9-32-40s14.33-40 32-40z" stroke="#000" stroke-opacity="0" stroke-width="3" fill="#78e6d8"/><use xlink:href="#a" transform="matrix(1,0,0,1,1017.3526927875946,3170.5) translate(44.574074074074076 31.77777777777778)"/><path d="M1166.35 3198.5h72.5" stroke="#5e5e5e" stroke-width="2" fill="none"/><path d="M1166.38 3199.5h-1.1l.07-1-.03-1h1.06z" stroke="#5e5e5e" stroke-width=".05" fill="#5e5e5e"/><path d="M1254.13 3198.5l-14.27 4.64v-9.28z" stroke="#5e5e5e" stroke-width="2" fill="#5e5e5e"/><path d="M1413.4 3158.5c21.34 0 38.64 17.9 38.64 40s-17.3 40-38.64 40h-115.9c-21.34 0-38.64-17.9-38.64-40s17.3-40 38.64-40z" stroke="#5e5e5e" stroke-width="3" fill="#31bddf"/><use xlink:href="#b" transform="matrix(1,0,0,1,1262.8620054958974,3162.5) translate(6.672839506172835 40.27777777777778)"/><use xlink:href="#c" transform="matrix(1,0,0,1,1262.8620054958974,3162.5) translate(62.22839506172839 40.27777777777778)"/><path d="M1619.9 3124.75a6.05 6.05 0 0 1 8.53 0l70.1 69.52a5.95 5.95 0 0 1 0 8.46l-70.1 69.52a6.05 6.05 0 0 1-8.52 0l-70.1-69.52a5.95 5.95 0 0 1 0-8.46z" stroke="#5e5e5e" stroke-width="3" fill="#fa7811"/><use xlink:href="#d" transform="matrix(1,0,0,1,1553.3469423621539,3128.325501871618) translate(19.214876543209876 75.05902777777777)"/><use xlink:href="#e" transform="matrix(1,0,0,1,1553.3469423621539,3128.325501871618) translate(82.11611111111111 75.05902777777777)"/><path d="M1454.54 3198.5h73.5" stroke="#5e5e5e" stroke-width="2" fill="none"/><path d="M1454.57 3199.5h-1.1l.07-.98-.03-1.02h1.07z" stroke="#5e5e5e" stroke-width=".05" fill="#5e5e5e"/><path d="M1543.3 3198.5l-14.26 4.64v-9.28z" stroke="#5e5e5e" stroke-width="2" fill="#5e5e5e"/><path d="M1857.33 2989.86c21.34 0 38.63 29.25 38.63 65.34 0 36.08-17.3 65.33-38.63 65.33h-115.9c-21.35 0-38.65-29.25-38.65-65.33 0-36.1 17.3-65.34 38.64-65.34z" stroke="#5e5e5e" stroke-width="3" fill="#31bddf"/><use xlink:href="#f" transform="matrix(1,0,0,1,1709.318237761841,2996.395002079576) translate(68.43092592592593 25.15277777777778)"/><use xlink:href="#g" transform="matrix(1,0,0,1,1709.318237761841,2996.395002079576) translate(70.80864197530865 51.81944444444445)"/><use xlink:href="#h" transform="matrix(1,0,0,1,1709.318237761841,2996.395002079576) translate(97.84567901234568 51.81944444444445)"/><use xlink:href="#i" transform="matrix(1,0,0,1,1709.318237761841,2996.395002079576) translate(44.54320987654321 78.48611111111111)"/><use xlink:href="#j" transform="matrix(1,0,0,1,1709.318237761841,2996.395002079576) translate(104.9753086419753 78.48611111111111)"/><use xlink:href="#k" transform="matrix(1,0,0,1,1709.318237761841,2996.395002079576) translate(124.11111111111111 78.48611111111111)"/><use xlink:href="#l" transform="matrix(1,0,0,1,1709.318237761841,2996.395002079576) translate(22.81364197530865 105.1527777777778)"/><use xlink:href="#m" transform="matrix(1,0,0,1,1709.318237761841,2996.395002079576) translate(104.17166666666667 105.1527777777778)"/><path d="M1624.2 3120.5l.1-3.32.4-4.13.66-3.97.88-3.83 1.1-3.7 1.35-3.6 1.56-3.5 1.8-3.42 2.06-3.33 2.3-3.25 2.57-3.17 2.83-3.08 3.15-3 3.45-2.87 3.77-2.76 4.1-2.6 4.45-2.43 4.77-2.22 5.1-2 5.38-1.7 5.67-1.4 1.23-.2" stroke="#5e5e5e" stroke-width="2" stroke-linejoin="round" fill="none"/><path d="M1625.2 3120.5l-.03 1.07-1-.08-1 .07.03-1.13z" stroke="#5e5e5e" stroke-width=".05" fill="#5e5e5e"/><path d="M1698.06 3055.5l-13.74 6.03-.9-9.22z" stroke="#5e5e5e" stroke-width="2" fill="#5e5e5e"/><path d="M1619.9 3350.83a6.05 6.05 0 0 1 8.53 0l70.1 69.52a5.95 5.95 0 0 1 0 8.45l-70.1 69.52a6.05 6.05 0 0 1-8.52 0l-70.1-69.52a5.95 5.95 0 0 1 0-8.45z" stroke="#5e5e5e" stroke-width="3" fill="#fa7811"/><use xlink:href="#n" transform="matrix(1,0,0,1,1553.3469423621539,3354.398523090564) translate(42.64080246913581 61.84027777777778)"/><use xlink:href="#o" transform="matrix(1,0,0,1,1553.3469423621539,3354.398523090564) translate(32.76425925925926 88.50694444444446)"/><path d="M1622.27 3274.9l.12 9.03m.1 9.04l.23 18.1m.12 9.03l.1 9.04M1622.27 3274.9v-1" stroke="#5e5e5e" stroke-width="2" fill="none"/><path d="M1623.15 3344.4l-4.8-14.2 9.26-.12z" stroke="#5e5e5e" stroke-width="2" fill="#5e5e5e"/><path d="M919.88 2917.77h104.92M919.9 2917.77h-1.02" stroke="#5e5e5e" stroke-width="2" fill="none"/><path d="M1040.06 2917.77l-14.26 4.64v-9.26z" stroke="#5e5e5e" stroke-width="2" fill="#5e5e5e"/><path d="M1056.06 2898.74a6 6 0 0 1 6-6h46.58a6 6 0 0 1 6 6v38.68a6 6 0 0 1-6 6h-46.58a6 6 0 0 1-6-6z" fill="none"/><use xlink:href="#p" transform="matrix(1,0,0,1,1068.0637421703107,2904.7386824714436) translate(0 17.944444444444443)"/><path d="M919.46 2959.15h11.66m11.66 0h23.3m11.67 0h23.32m11.65 0h11.66M919.5 2959.15h-1.04" stroke="#5e5e5e" stroke-width="2" fill="none"/><path d="M1039.65 2959.15l-14.27 4.64v-9.28z" stroke="#5e5e5e" stroke-width="2" fill="#5e5e5e"/><path d="M1061 2945.2a6 6 0 0 1 6-6h36.7a6 6 0 0 1 6 6v38.66a6 6 0 0 1-6 6H1067a6 6 0 0 1-6-6z" fill="none"/><use xlink:href="#q" transform="matrix(1,0,0,1,1073.002013775249,2951.185002079576) translate(0 17.944444444444443)"/><path d="M2078.35 2981.45a6.05 6.05 0 0 1 8.52 0l70.1 69.52a5.95 5.95 0 0 1 0 8.45l-70.1 69.52a6.05 6.05 0 0 1-8.52 0l-70.1-69.52a5.95 5.95 0 0 1 0-8.45z" stroke="#5e5e5e" stroke-width="3" fill="#fa7811"/><use xlink:href="#r" transform="matrix(1,0,0,1,2011.792034450138,2985.0205039511943) translate(43.2580864197531 61.84027777777778)"/><use xlink:href="#s" transform="matrix(1,0,0,1,2011.792034450138,2985.0205039511943) translate(32.11611111111111 88.50694444444446)"/><path d="M1898.37 3051.87h88.9M1898.4 3051.87h-1.03" stroke="#5e5e5e" stroke-width="2" fill="none"/><path d="M2002.54 3051.87l-14.26 4.63v-9.27z" stroke="#5e5e5e" stroke-width="2" fill="#5e5e5e"/><path d="M2315.77 2897.22c21.34 0 38.64 17.9 38.64 40s-17.3 40-38.63 40h-115.9c-21.34 0-38.64-17.9-38.64-40s17.3-40 38.64-40z" stroke="#5e5e5e" stroke-width="3" fill="#31bddf"/><use xlink:href="#t" transform="matrix(1,0,0,1,2165.229996516492,2901.2233374924854) translate(36.27160493827161 40.27777777777778)"/><use xlink:href="#u" transform="matrix(1,0,0,1,2165.229996516492,2901.2233374924854) translate(95.46913580246914 40.27777777777778)"/><path d="M2084.02 2979.46l5.4-3.26 4.42-3.06m9.2-7.18l6.05-4.9 12.06-9.87m9.68-6.54l.25-.15 3.56-1.84 3.4-1.48 3.34-1.2.1-.03" stroke="#5e5e5e" stroke-width="2" stroke-linejoin="round" fill="none"/><path d="M2084.04 2979.45l-.87.53" stroke="#5e5e5e" stroke-width="2" fill="none"/><path d="M2156.53 2937.7l-13.43 6.7-1.37-9.18z" stroke="#5e5e5e" stroke-width="2" fill="#5e5e5e"/><path d="M2080 3129.4l59.2 7.5 68.86 9.3 27.42 2.25 23.3.9" stroke="#5e5e5e" stroke-width="2" stroke-linejoin="round" fill="none"/><path d="M2080.04 3129.4l-1.02-.12" stroke="#5e5e5e" stroke-width="2" fill="none"/><path d="M2274.03 3149.6l-14.34 4.4.15-9.26z" stroke="#5e5e5e" stroke-width="2" fill="#5e5e5e"/><path d="M2350.45 3074.4a6.05 6.05 0 0 1 8.52 0l70.1 69.5a5.95 5.95 0 0 1 0 8.46l-70.1 69.52a6.05 6.05 0 0 1-8.52 0l-70.1-69.52a5.95 5.95 0 0 1 0-8.45z" stroke="#5e5e5e" stroke-width="3" fill="#fa7811"/><use xlink:href="#v" transform="matrix(1,0,0,1,2283.891765766071,3077.961110644503) translate(26.684012345679015 75.05902777777777)"/><use xlink:href="#w" transform="matrix(1,0,0,1,2283.891765766071,3077.961110644503) translate(67.3012962962963 75.05902777777777)"/><path d="M2589.47 2915.86a6.05 6.05 0 0 1 8.52 0l70.1 69.52a5.95 5.95 0 0 1 0 8.45l-70.1 69.52a6.05 6.05 0 0 1-8.53 0l-70.1-69.52a5.95 5.95 0 0 1 0-8.45z" stroke="#5e5e5e" stroke-width="3" fill="#fa7811"/><use xlink:href="#v" transform="matrix(1,0,0,1,2522.911590371384,2919.4325492201774) translate(13.13462962962963 75.05902777777777)"/><use xlink:href="#x" transform="matrix(1,0,0,1,2522.911590371384,2919.4325492201774) translate(53.751913580246914 75.05902777777777)"/><path d="M2356.9 2937.24l2.92.06 3.04.2 2.42.24 1.96.3 1.6.3 1.35.3 1.12.32.96.32.83.3.73.3.62.3.56.3.5.27.43.28.4.27.35.27.32.26.28.26.27.25.23.25.22.26.2.25.2.26.15.25.16.26.15.26.12.26.12.26.1.26.1.28.07.27.08.3.06.28.06.3.04.32.03.32V2948.06l-.04.4-.06.42-.08.46-.1.48-.14.54-.17.57-.22.63-.27.68-.33.77-.42.84-.5.96-.66 1.07-.82 1.23-1.04 1.42-1.32 1.67-1.7 1.97-2.23 2.36-2.94 2.87-3.94 3.54-5.3 4.38-7.25 5.48-9.8 6.8-13 8.23-16.4 9.44-19.15 10-20.38 9.6-19.78 8.33-17.92 6.67-15.5 5.05-13.13 3.66-10.98 2.58-9.2 1.76-6.2.92" stroke="#5e5e5e" stroke-width="2" stroke-linejoin="round" fill="none"/><path d="M2356.96 2936.24l-.04 2-1.07-.02.06-.98-.03-1.02z" stroke="#5e5e5e" stroke-width=".05" fill="#5e5e5e"/><path d="M2163.46 3054.95l13.88-5.68.7 9.25z" stroke="#5e5e5e" stroke-width="2" fill="#5e5e5e"/><path d="M2354.13 3069.17l8.15-4.22m7.97-4.55l2.18-1.25 11.02-6.94 2.32-1.6m7.54-5.2l5.5-3.8 9.5-6.83m7.44-5.36l14.9-10.7m7.55-5.2l5.45-3.45 6.6-3.77 3.82-2m8.3-3.92l4.38-1.82 5.1-1.87 5.04-1.62 2.76-.76m8.94-2.1l3.88-.73 5.17-.74" stroke="#5e5e5e" stroke-width="2" stroke-linejoin="round" fill="none"/><path d="M2354.15 3069.15l-.9.48" stroke="#5e5e5e" stroke-width="2" fill="none"/><path d="M2512.88 2989.8l-13.96 5.5-.56-9.26z" stroke="#5e5e5e" stroke-width="2" fill="#5e5e5e"/><path d="M2660.46 2791.08c21.34 0 38.63 17.9 38.63 40s-17.3 40-38.64 40h-115.9c-21.35 0-38.64-17.9-38.64-40s17.3-40 38.63-40z" stroke="#5e5e5e" stroke-width="3" fill="#31bddf"/><use xlink:href="#y" transform="matrix(1,0,0,1,2509.9162990523955,2795.0784859242335) translate(63.401234567901234 40.27777777777778)"/><path d="M2593.73 2911.6v-20.52" stroke="#5e5e5e" stroke-width="2" stroke-linejoin="round" fill="none"/><path d="M2594.73 2912.68l-1-.08-1 .08v-1.1h2z" stroke="#5e5e5e" stroke-width=".05" fill="#5e5e5e"/><path d="M2593.73 2875.8l4.64 14.28h-9.27z" stroke="#5e5e5e" stroke-width="2" fill="#5e5e5e"/><path d="M2503.4 2831.05l-134-3.17-458.77-19.72-84.28 1.65-61.2 3.8-47.9 5-39.06 5.74-32.72 6.23-27.96 6.54-24.26 6.77-21.3 6.92-18.93 7-16.93 7.13-15.3 7.18-13.87 7.27-12.68 7.32-11.66 7.38-10.77 7.47-9.97 7.57-9.28 7.68-8.66 7.8-8.1 7.94-7.63 8.1-7.17 8.3-6.75 8.52-6.37 8.76-6 9.04-5.67 9.37-5.34 9.73-5.05 10.14-4.72 10.6-4.4 11.15-4.1 11.74-3.75 12.43-3.4 13.23-3 14.13-2.56 15.16-2.06 16.4-1.5 17.78-.46 11.37" stroke="#5e5e5e" stroke-width="2" stroke-linejoin="round" fill="none"/><path d="M2504.48 2830.08l-.07.98.05 1.02-1.1-.03.05-2z" stroke="#5e5e5e" stroke-width=".05" fill="#5e5e5e"/><path d="M1355.53 3153.76l-4.3-14.37 9.28.2z" stroke="#5e5e5e" stroke-width="2" fill="#5e5e5e"/><path d="M2651.7 3108.14c21.32 0 38.62 17.9 38.62 40s-17.3 40-38.63 40h-115.92c-21.34 0-38.64-17.9-38.64-40s17.3-40 38.64-40z" stroke="#5e5e5e" stroke-width="3" fill="#31bddf"/><use xlink:href="#v" transform="matrix(1,0,0,1,2501.1427593255844,3112.135608772885) translate(48.184012345679015 26.77777777777778)"/><use xlink:href="#z" transform="matrix(1,0,0,1,2501.1427593255844,3112.135608772885) translate(88.8012962962963 26.77777777777778)"/><use xlink:href="#i" transform="matrix(1,0,0,1,2501.1427593255844,3112.135608772885) translate(43.77043209876543 53.44444444444445)"/><use xlink:href="#A" transform="matrix(1,0,0,1,2501.1427593255844,3112.135608772885) translate(104.20253086419753 53.44444444444445)"/><path d="M2651.7 3266.6c21.32 0 38.62 17.9 38.62 40s-17.3 40-38.63 40h-115.92c-21.34 0-38.64-17.9-38.64-40s17.3-40 38.64-40z" stroke="#5e5e5e" stroke-width="3" fill="#31bddf"/><g><use xlink:href="#B" transform="matrix(1,0,0,1,2501.1427593255844,3270.601356631855) translate(43.06172839506173 40.27777777777778)"/><use xlink:href="#m" transform="matrix(1,0,0,1,2501.1427593255844,3270.601356631855) translate(89.91358024691358 40.27777777777778)"/></g><path d="M2434.64 3148.83l42.5-.48" stroke="#5e5e5e" stroke-width="2" stroke-linejoin="round" fill="none"/><path d="M2434.67 3148.83h-1.03" stroke="#5e5e5e" stroke-width="2" fill="none"/><path d="M2492.4 3148.17l-14.2 4.8-.1-9.27z" stroke="#5e5e5e" stroke-width="2" fill="#5e5e5e"/><path d="M2667.4 2987.63l.74 7.65.27 1.94m1.42 9.53l1.93 10.5 1.9 8.4m2.3 9.36l4.26 15.67.93 2.9m2.93 9.2l4.8 15.08 1.17 3.24m3.25 9.07l6.5 18.15m3.26 9.07l6.5 18.14m3.25 9.08l6.5 18.15m3.25 9.07l6.5 18.16m3.26 9.07l3.5 9.77 2.35 8.6m2.36 9.33l1.33 5.8 1.44 7.84.75 5.32m.85 9.6l.08 1.3.05 3.9-.1 3.43-.2 3.04-.3 2.7-.4 2.47-.43 2.24-.03.1m-3.04 9.12l-.52 1.1-.73 1.35-.76 1.3-.8 1.22-.83 1.16-.86 1.13-.9 1.07-.95 1.04-1 1-1.05.98-1.1.94-1.18.92-1.24.9-.5.3m-8.58 4.34l-.5.2-2.1.7-2.3.68-2.55.63-1.83.36" stroke="#5e5e5e" stroke-width="2" stroke-linejoin="round" fill="none"/><path d="M2667.4 2987.66l-.1-1.02" stroke="#5e5e5e" stroke-width="2" fill="none"/><path d="M2695.05 3306.3l13.8-5.87.82 9.24z" stroke="#5e5e5e" stroke-width="2" fill="#5e5e5e"/><path d="M2690.14 3146.1l.07 3.07.3 4.55.54 5.17.9 6 1.38 7.25 2.2 9.38 4.23 14.97 12.3 40.62 1.7 7.18 1 5.22.6 4.1.36 3.4.2 2.9.05 2.5-.05 2.22-.12 1.98-.2 1.78-.23 1.64-.28 1.5-.33 1.4-.36 1.28-.4 1.22-.42 1.15-.46 1.08-.5 1.03-.5 1-.56.96-.58.9-.6.9-.67.86-.7.84-.74.82-.8.8-.83.8-.1.1" stroke="#5e5e5e" stroke-width="2" stroke-linejoin="round" fill="none"/><path d="M2690.14 3146.1l-.02-1" stroke="#5e5e5e" stroke-width="2" fill="none"/><path d="M2693 3293.42l10.7-10.52 4.15 8.3z" stroke="#5e5e5e" stroke-width="2" fill="#5e5e5e"/><path d="M2499.85 3307.2l-11.1-4.38-13.46-4.67-15.37-4.62-17.94-4.57-21.75-4.6-28.35-4.73-46.6-5.72-115.4-12.17-21.87-3.65-15.74-3.3-12.36-3.16-10.13-3.05-8.55-2.96-7.4-2.9-6.46-2.88-5.76-2.84-5.15-2.83-4.68-2.82-4.24-2.8-3.9-2.83-3.6-2.85-3.32-2.86-3.1-2.92-2.9-2.94-2.7-3-2.55-3.08-2.38-3.16-2.26-3.24-2.14-3.36-2-3.48-1.9-3.62-1.8-3.8-1.67-3.96-1.56-4.2-1.46-4.44-1.32-4.73-1.2-5.06-1.04-5.44-.87-5.9-.3-3" stroke="#5e5e5e" stroke-width="2" stroke-linejoin="round" fill="none"/><path d="M2499.82 3307.2l.96.36" stroke="#5e5e5e" stroke-width="2" fill="none"/><path d="M2082.78 3135.43l5.4 14-9.27.5z" stroke="#5e5e5e" stroke-width="2" fill="#5e5e5e"/><defs><path fill="#333" d="M185-189c-5-48-123-54-124 2 14 75 158 14 163 119 3 78-121 87-175 55-17-10-28-26-33-46l33-7c5 56 141 63 141-1 0-78-155-14-162-118-5-82 145-84 179-34 5 7 8 16 11 25" id="C"/><path fill="#333" d="M59-47c-2 24 18 29 38 22v24C64 9 27 4 27-40v-127H5v-23h24l9-43h21v43h35v23H59v120" id="D"/><path fill="#333" d="M141-36C126-15 110 5 73 4 37 3 15-17 15-53c-1-64 63-63 125-63 3-35-9-54-41-54-24 1-41 7-42 31l-33-3c5-37 33-52 76-52 45 0 72 20 72 64v82c-1 20 7 32 28 27v20c-31 9-61-2-59-35zM48-53c0 20 12 33 32 33 41-3 63-29 60-74-43 2-92-5-92 41" id="E"/><path fill="#333" d="M114-163C36-179 61-72 57 0H25l-1-190h30c1 12-1 29 2 39 6-27 23-49 58-41v29" id="F"/><g id="a"><use transform="matrix(0.06172839506172839,0,0,0.06172839506172839,0,0)" xlink:href="#C"/><use transform="matrix(0.06172839506172839,0,0,0.06172839506172839,14.814814814814813,0)" xlink:href="#D"/><use transform="matrix(0.06172839506172839,0,0,0.06172839506172839,20.98765432098765,0)" xlink:href="#E"/><use transform="matrix(0.06172839506172839,0,0,0.06172839506172839,33.33333333333333,0)" xlink:href="#F"/><use transform="matrix(0.06172839506172839,0,0,0.06172839506172839,40.679012345679006,0)" xlink:href="#D"/></g><path fill="#333" d="M30 0v-248h33v221h125V0H30" id="G"/><path fill="#333" d="M100-194c62-1 85 37 85 99 1 63-27 99-86 99S16-35 15-95c0-66 28-99 85-99zM99-20c44 1 53-31 53-75 0-43-8-75-51-75s-53 32-53 75 10 74 51 75" id="H"/><path fill="#333" d="M85-194c31 0 48 13 60 33l-1-100h32l1 261h-30c-2-10 0-23-3-31C134-8 116 4 85 4 32 4 16-35 15-94c0-66 23-100 70-100zm9 24c-40 0-46 34-46 75 0 40 6 74 45 74 42 0 51-32 51-76 0-42-9-74-50-73" id="I"/><g id="b"><use transform="matrix(0.06172839506172839,0,0,0.06172839506172839,0,0)" xlink:href="#G"/><use transform="matrix(0.06172839506172839,0,0,0.06172839506172839,12.345679012345679,0)" xlink:href="#H"/><use transform="matrix(0.06172839506172839,0,0,0.06172839506172839,24.691358024691358,0)" xlink:href="#E"/><use transform="matrix(0.06172839506172839,0,0,0.06172839506172839,37.03703703703704,0)" xlink:href="#I"/></g><path fill="#333" d="M135-143c-3-34-86-38-87 0 15 53 115 12 119 90S17 21 10-45l28-5c4 36 97 45 98 0-10-56-113-15-118-90-4-57 82-63 122-42 12 7 21 19 24 35" id="J"/><path fill="#333" d="M16-82v-28h88v28H16" id="K"/><path fill="#333" d="M96-169c-40 0-48 33-48 73s9 75 48 75c24 0 41-14 43-38l32 2c-6 37-31 61-74 61-59 0-76-41-82-99-10-93 101-131 147-64 4 7 5 14 7 22l-32 3c-4-21-16-35-41-35" id="L"/><path fill="#333" d="M100-194c63 0 86 42 84 106H49c0 40 14 67 53 68 26 1 43-12 49-29l28 8c-11 28-37 45-77 45C44 4 14-33 15-96c1-61 26-98 85-98zm52 81c6-60-76-77-97-28-3 7-6 17-6 28h103" id="M"/><path fill="#333" d="M117-194c89-4 53 116 60 194h-32v-121c0-31-8-49-39-48C34-167 62-67 57 0H25l-1-190h30c1 10-1 24 2 32 11-22 29-35 61-36" id="N"/><g id="c"><use transform="matrix(0.06172839506172839,0,0,0.06172839506172839,0,0)" xlink:href="#J"/><use transform="matrix(0.06172839506172839,0,0,0.06172839506172839,11.11111111111111,0)" xlink:href="#D"/><use transform="matrix(0.06172839506172839,0,0,0.06172839506172839,17.28395061728395,0)" xlink:href="#E"/><use transform="matrix(0.06172839506172839,0,0,0.06172839506172839,29.629629629629626,0)" xlink:href="#F"/><use transform="matrix(0.06172839506172839,0,0,0.06172839506172839,36.9753086419753,0)" xlink:href="#D"/><use transform="matrix(0.06172839506172839,0,0,0.06172839506172839,43.148148148148145,0)" xlink:href="#K"/><use transform="matrix(0.06172839506172839,0,0,0.06172839506172839,50.49382716049382,0)" xlink:href="#J"/><use transform="matrix(0.06172839506172839,0,0,0.06172839506172839,61.60493827160494,0)" xlink:href="#L"/><use transform="matrix(0.06172839506172839,0,0,0.06172839506172839,72.71604938271605,0)" xlink:href="#F"/><use transform="matrix(0.06172839506172839,0,0,0.06172839506172839,80.06172839506173,0)" xlink:href="#M"/><use transform="matrix(0.06172839506172839,0,0,0.06172839506172839,92.40740740740742,0)" xlink:href="#M"/><use transform="matrix(0.06172839506172839,0,0,0.06172839506172839,104.7530864197531,0)" xlink:href="#N"/></g><path fill="#333" d="M30-248c87 1 191-15 191 75 0 78-77 80-158 76V0H30v-248zm33 125c57 0 124 11 124-50 0-59-68-47-124-48v98" id="O"/><g id="d"><use transform="matrix(0.06172839506172839,0,0,0.06172839506172839,0,0)" xlink:href="#O"/><use transform="matrix(0.06172839506172839,0,0,0.06172839506172839,14.814814814814813,0)" xlink:href="#F"/><use transform="matrix(0.06172839506172839,0,0,0.06172839506172839,22.160493827160494,0)" xlink:href="#M"/><use transform="matrix(0.06172839506172839,0,0,0.06172839506172839,34.50617283950617,0)" xlink:href="#J"/><use transform="matrix(0.06172839506172839,0,0,0.06172839506172839,45.61728395061728,0)" xlink:href="#J"/></g><path fill="#333" d="M115-194c55 1 70 41 70 98S169 2 115 4C84 4 66-9 55-30l1 105H24l-1-265h31l2 30c10-21 28-34 59-34zm-8 174c40 0 45-34 45-75s-6-73-45-74c-42 0-51 32-51 76 0 43 10 73 51 73" id="P"/><path fill="#333" d="M24 0v-261h32V0H24" id="Q"/><path fill="#333" d="M179-190L93 31C79 59 56 82 12 73V49c39 6 53-20 64-50L1-190h34L92-34l54-156h33" id="R"/><g id="e"><use transform="matrix(0.06172839506172839,0,0,0.06172839506172839,0,0)" xlink:href="#P"/><use transform="matrix(0.06172839506172839,0,0,0.06172839506172839,12.345679012345679,0)" xlink:href="#Q"/><use transform="matrix(0.06172839506172839,0,0,0.06172839506172839,17.22222222222222,0)" xlink:href="#E"/><use transform="matrix(0.06172839506172839,0,0,0.06172839506172839,29.5679012345679,0)" xlink:href="#R"/></g><g id="f"><use transform="matrix(0.06172839506172839,0,0,0.06172839506172839,0,0)" xlink:href="#J"/><use transform="matrix(0.06172839506172839,0,0,0.06172839506172839,11.11111111111111,0)" xlink:href="#D"/><use transform="matrix(0.06172839506172839,0,0,0.06172839506172839,17.28395061728395,0)" xlink:href="#E"/><use transform="matrix(0.06172839506172839,0,0,0.06172839506172839,29.629629629629626,0)" xlink:href="#F"/><use transform="matrix(0.06172839506172839,0,0,0.06172839506172839,36.9753086419753,0)" xlink:href="#D"/></g><path fill="#333" d="M108 0H70L1-190h34L89-25l56-165h34" id="S"/><g id="g"><use transform="matrix(0.06172839506172839,0,0,0.06172839506172839,0,0)" xlink:href="#Q"/><use transform="matrix(0.06172839506172839,0,0,0.06172839506172839,4.876543209876543,0)" xlink:href="#S"/><use transform="matrix(0.06172839506172839,0,0,0.06172839506172839,15.987654320987653,0)" xlink:href="#Q"/></g><path fill="#333" d="M27 0v-27h64v-190l-56 39v-29l58-41h29v221h61V0H27" id="T"/><use transform="matrix(0.06172839506172839,0,0,0.06172839506172839,0,0)" xlink:href="#T" id="h"/><g id="i"><use transform="matrix(0.06172839506172839,0,0,0.06172839506172839,0,0)" xlink:href="#J"/><use transform="matrix(0.06172839506172839,0,0,0.06172839506172839,11.11111111111111,0)" xlink:href="#L"/><use transform="matrix(0.06172839506172839,0,0,0.06172839506172839,22.22222222222222,0)" xlink:href="#H"/><use transform="matrix(0.06172839506172839,0,0,0.06172839506172839,34.5679012345679,0)" xlink:href="#F"/><use transform="matrix(0.06172839506172839,0,0,0.06172839506172839,41.913580246913575,0)" xlink:href="#M"/></g><path fill="#333" d="M18-150v-26h174v26H18zm0 90v-26h174v26H18" id="U"/><use transform="matrix(0.06172839506172839,0,0,0.06172839506172839,0,0)" xlink:href="#U" id="j"/><path fill="#333" d="M101-251c68 0 85 55 85 127S166 4 100 4C33 4 14-52 14-124c0-73 17-127 87-127zm-1 229c47 0 54-49 54-102s-4-102-53-102c-51 0-55 48-55 102 0 53 5 102 54 102" id="V"/><use transform="matrix(0.06172839506172839,0,0,0.06172839506172839,0,0)" xlink:href="#V" id="k"/><path fill="#333" d="M210-169c-67 3-38 105-44 169h-31v-121c0-29-5-50-35-48C34-165 62-65 56 0H25l-1-190h30c1 10-1 24 2 32 10-44 99-50 107 0 11-21 27-35 58-36 85-2 47 119 55 194h-31v-121c0-29-5-49-35-48" id="W"/><g id="l"><use transform="matrix(0.06172839506172839,0,0,0.06172839506172839,0,0)" xlink:href="#F"/><use transform="matrix(0.06172839506172839,0,0,0.06172839506172839,7.345679012345679,0)" xlink:href="#E"/><use transform="matrix(0.06172839506172839,0,0,0.06172839506172839,19.691358024691358,0)" xlink:href="#N"/><use transform="matrix(0.06172839506172839,0,0,0.06172839506172839,32.03703703703704,0)" xlink:href="#I"/><use transform="matrix(0.06172839506172839,0,0,0.06172839506172839,44.382716049382715,0)" xlink:href="#H"/><use transform="matrix(0.06172839506172839,0,0,0.06172839506172839,56.72839506172839,0)" xlink:href="#W"/></g><path fill="#333" d="M24-231v-30h32v30H24zM24 0v-190h32V0H24" id="X"/><g id="m"><use transform="matrix(0.06172839506172839,0,0,0.06172839506172839,0,0)" xlink:href="#P"/><use transform="matrix(0.06172839506172839,0,0,0.06172839506172839,12.345679012345679,0)" xlink:href="#X"/><use transform="matrix(0.06172839506172839,0,0,0.06172839506172839,17.22222222222222,0)" xlink:href="#M"/><use transform="matrix(0.06172839506172839,0,0,0.06172839506172839,29.5679012345679,0)" xlink:href="#L"/><use transform="matrix(0.06172839506172839,0,0,0.06172839506172839,40.67901234567901,0)" xlink:href="#M"/></g><g id="n"><use transform="matrix(0.06172839506172839,0,0,0.06172839506172839,0,0)" xlink:href="#O"/><use transform="matrix(0.06172839506172839,0,0,0.06172839506172839,14.814814814814813,0)" xlink:href="#F"/><use transform="matrix(0.06172839506172839,0,0,0.06172839506172839,22.160493827160494,0)" xlink:href="#M"/><use transform="matrix(0.06172839506172839,0,0,0.06172839506172839,34.50617283950617,0)" xlink:href="#J"/><use transform="matrix(0.06172839506172839,0,0,0.06172839506172839,45.61728395061728,0)" xlink:href="#J"/></g><path fill="#333" d="M177-190C167-65 218 103 67 71c-23-6-38-20-44-43l32-5c15 47 100 32 89-28v-30C133-14 115 1 83 1 29 1 15-40 15-95c0-56 16-97 71-98 29-1 48 16 59 35 1-10 0-23 2-32h30zM94-22c36 0 50-32 50-73 0-42-14-75-50-75-39 0-46 34-46 75s6 73 46 73" id="Y"/><g id="o"><use transform="matrix(0.06172839506172839,0,0,0.06172839506172839,0,0)" xlink:href="#J"/><use transform="matrix(0.06172839506172839,0,0,0.06172839506172839,11.11111111111111,0)" xlink:href="#M"/><use transform="matrix(0.06172839506172839,0,0,0.06172839506172839,23.45679012345679,0)" xlink:href="#D"/><use transform="matrix(0.06172839506172839,0,0,0.06172839506172839,29.62962962962963,0)" xlink:href="#D"/><use transform="matrix(0.06172839506172839,0,0,0.06172839506172839,35.80246913580247,0)" xlink:href="#X"/><use transform="matrix(0.06172839506172839,0,0,0.06172839506172839,40.67901234567901,0)" xlink:href="#N"/><use transform="matrix(0.06172839506172839,0,0,0.06172839506172839,53.02469135802469,0)" xlink:href="#Y"/><use transform="matrix(0.06172839506172839,0,0,0.06172839506172839,65.37037037037037,0)" xlink:href="#J"/></g><g id="p"><use transform="matrix(0.06172839506172839,0,0,0.06172839506172839,0,0)" xlink:href="#R"/><use transform="matrix(0.06172839506172839,0,0,0.06172839506172839,11.11111111111111,0)" xlink:href="#M"/><use transform="matrix(0.06172839506172839,0,0,0.06172839506172839,23.45679012345679,0)" xlink:href="#J"/></g><g id="q"><use transform="matrix(0.06172839506172839,0,0,0.06172839506172839,0,0)" xlink:href="#N"/><use transform="matrix(0.06172839506172839,0,0,0.06172839506172839,12.345679012345679,0)" xlink:href="#H"/></g><g id="r"><use transform="matrix(0.06172839506172839,0,0,0.06172839506172839,0,0)" xlink:href="#O"/><use transform="matrix(0.06172839506172839,0,0,0.06172839506172839,14.814814814814813,0)" xlink:href="#X"/><use transform="matrix(0.06172839506172839,0,0,0.06172839506172839,19.691358024691354,0)" xlink:href="#M"/><use transform="matrix(0.06172839506172839,0,0,0.06172839506172839,32.03703703703703,0)" xlink:href="#L"/><use transform="matrix(0.06172839506172839,0,0,0.06172839506172839,43.14814814814814,0)" xlink:href="#M"/></g><g id="s"><use transform="matrix(0.06172839506172839,0,0,0.06172839506172839,0,0)" xlink:href="#L"/><use transform="matrix(0.06172839506172839,0,0,0.06172839506172839,11.11111111111111,0)" xlink:href="#H"/><use transform="matrix(0.06172839506172839,0,0,0.06172839506172839,23.45679012345679,0)" xlink:href="#N"/><use transform="matrix(0.06172839506172839,0,0,0.06172839506172839,35.80246913580247,0)" xlink:href="#N"/><use transform="matrix(0.06172839506172839,0,0,0.06172839506172839,48.148148148148145,0)" xlink:href="#M"/><use transform="matrix(0.06172839506172839,0,0,0.06172839506172839,60.49382716049382,0)" xlink:href="#L"/><use transform="matrix(0.06172839506172839,0,0,0.06172839506172839,71.60493827160494,0)" xlink:href="#D"/></g><g id="t"><use transform="matrix(0.06172839506172839,0,0,0.06172839506172839,0,0)" xlink:href="#P"/><use transform="matrix(0.06172839506172839,0,0,0.06172839506172839,12.345679012345679,0)" xlink:href="#X"/><use transform="matrix(0.06172839506172839,0,0,0.06172839506172839,17.22222222222222,0)" xlink:href="#M"/><use transform="matrix(0.06172839506172839,0,0,0.06172839506172839,29.5679012345679,0)" xlink:href="#L"/><use transform="matrix(0.06172839506172839,0,0,0.06172839506172839,40.67901234567901,0)" xlink:href="#M"/></g><g id="u"><use transform="matrix(0.06172839506172839,0,0,0.06172839506172839,0,0)" xlink:href="#W"/><use transform="matrix(0.06172839506172839,0,0,0.06172839506172839,18.456790123456788,0)" xlink:href="#H"/><use transform="matrix(0.06172839506172839,0,0,0.06172839506172839,30.80246913580247,0)" xlink:href="#S"/><use transform="matrix(0.06172839506172839,0,0,0.06172839506172839,41.91358024691358,0)" xlink:href="#M"/></g><g id="v"><use transform="matrix(0.06172839506172839,0,0,0.06172839506172839,0,0)" xlink:href="#Q"/><use transform="matrix(0.06172839506172839,0,0,0.06172839506172839,4.876543209876543,0)" xlink:href="#X"/><use transform="matrix(0.06172839506172839,0,0,0.06172839506172839,9.753086419753085,0)" xlink:href="#N"/><use transform="matrix(0.06172839506172839,0,0,0.06172839506172839,22.098765432098766,0)" xlink:href="#M"/></g><g id="w"><use transform="matrix(0.06172839506172839,0,0,0.06172839506172839,0,0)" xlink:href="#L"/><use transform="matrix(0.06172839506172839,0,0,0.06172839506172839,11.11111111111111,0)" xlink:href="#Q"/><use transform="matrix(0.06172839506172839,0,0,0.06172839506172839,15.987654320987653,0)" xlink:href="#M"/><use transform="matrix(0.06172839506172839,0,0,0.06172839506172839,28.333333333333332,0)" xlink:href="#E"/><use transform="matrix(0.06172839506172839,0,0,0.06172839506172839,40.67901234567901,0)" xlink:href="#F"/></g><g id="x"><use transform="matrix(0.06172839506172839,0,0,0.06172839506172839,0,0)" xlink:href="#D"/><use transform="matrix(0.06172839506172839,0,0,0.06172839506172839,6.172839506172839,0)" xlink:href="#H"/><use transform="matrix(0.06172839506172839,0,0,0.06172839506172839,18.51851851851852,0)" xlink:href="#P"/><use transform="matrix(0.06172839506172839,0,0,0.06172839506172839,30.864197530864196,0)" xlink:href="#K"/><use transform="matrix(0.06172839506172839,0,0,0.06172839506172839,38.20987654320987,0)" xlink:href="#Y"/><use transform="matrix(0.06172839506172839,0,0,0.06172839506172839,50.55555555555555,0)" xlink:href="#F"/><use transform="matrix(0.06172839506172839,0,0,0.06172839506172839,57.90123456790123,0)" xlink:href="#X"/><use transform="matrix(0.06172839506172839,0,0,0.06172839506172839,62.77777777777777,0)" xlink:href="#I"/></g><path fill="#333" d="M30-248c118-7 216 8 213 122C240-48 200 0 122 0H30v-248zM63-27c89 8 146-16 146-99s-60-101-146-95v194" id="Z"/><path fill="#333" d="M106-169C34-169 62-67 57 0H25v-261h32l-1 103c12-21 28-36 61-36 89 0 53 116 60 194h-32v-121c2-32-8-49-39-48" id="aa"/><g id="y"><use transform="matrix(0.06172839506172839,0,0,0.06172839506172839,0,0)" xlink:href="#Z"/><use transform="matrix(0.06172839506172839,0,0,0.06172839506172839,15.987654320987653,0)" xlink:href="#M"/><use transform="matrix(0.06172839506172839,0,0,0.06172839506172839,28.333333333333332,0)" xlink:href="#E"/><use transform="matrix(0.06172839506172839,0,0,0.06172839506172839,40.67901234567901,0)" xlink:href="#D"/><use transform="matrix(0.06172839506172839,0,0,0.06172839506172839,46.851851851851855,0)" xlink:href="#aa"/></g><g id="z"><use transform="matrix(0.06172839506172839,0,0,0.06172839506172839,0,0)" xlink:href="#L"/><use transform="matrix(0.06172839506172839,0,0,0.06172839506172839,11.11111111111111,0)" xlink:href="#Q"/><use transform="matrix(0.06172839506172839,0,0,0.06172839506172839,15.987654320987653,0)" xlink:href="#M"/><use transform="matrix(0.06172839506172839,0,0,0.06172839506172839,28.333333333333332,0)" xlink:href="#E"/><use transform="matrix(0.06172839506172839,0,0,0.06172839506172839,40.67901234567901,0)" xlink:href="#F"/></g><g id="A"><use transform="matrix(0.06172839506172839,0,0,0.06172839506172839,0,0)" xlink:href="#E"/><use transform="matrix(0.06172839506172839,0,0,0.06172839506172839,12.345679012345679,0)" xlink:href="#I"/><use transform="matrix(0.06172839506172839,0,0,0.06172839506172839,24.691358024691358,0)" xlink:href="#I"/></g><path fill="#333" d="M206 0h-36l-40-164L89 0H53L-1-190h32L70-26l43-164h34l41 164 42-164h31" id="ab"/><g id="B"><use transform="matrix(0.06172839506172839,0,0,0.06172839506172839,0,0)" xlink:href="#N"/><use transform="matrix(0.06172839506172839,0,0,0.06172839506172839,12.345679012345679,0)" xlink:href="#M"/><use transform="matrix(0.06172839506172839,0,0,0.06172839506172839,24.691358024691358,0)" xlink:href="#ab"/></g></defs></g></svg>